<svg id="visual" viewBox="0 0 960 300" width="960" height="300" xmlns="http://www.w3.org/2000/svg" xmlns:xlink="http://www.w3.org/1999/xlink" version="1.1"><rect x="0" y="0" width="960" height="300" fill="#202731"></rect><path d="M0 170L26.7 180.7C53.3 191.3 106.7 212.7 160 223.5C213.3 234.3 266.7 234.7 320 226.3C373.3 218 426.7 201 480 194.3C533.3 187.7 586.7 191.3 640 198.7C693.3 206 746.7 217 800 218.5C853.3 220 906.7 212 933.3 208L960 204L960 0L933.3 0C906.7 0 853.3 0 800 0C746.7 0 693.3 0 640 0C586.7 0 533.3 0 480 0C426.7 0 373.3 0 320 0C266.7 0 213.3 0 160 0C106.7 0 53.3 0 26.7 0L0 0Z" fill="#ff6f61"></path><path d="M0 152L26.7 151.8C53.3 151.7 106.7 151.3 160 153.2C213.3 155 266.7 159 320 161C373.3 163 426.7 163 480 160.5C533.3 158 586.7 153 640 156.8C693.3 160.7 746.7 173.3 800 170.5C853.3 167.7 906.7 149.3 933.3 140.2L960 131L960 0L933.3 0C906.7 0 853.3 0 800 0C746.7 0 693.3 0 640 0C586.7 0 533.3 0 480 0C426.7 0 373.3 0 320 0C266.7 0 213.3 0 160 0C106.7 0 53.3 0 26.7 0L0 0Z" fill="#f46051"></path><path d="M0 87L26.7 93.7C53.3 100.3 106.7 113.7 160 116.8C213.3 120 266.7 113 320 108.2C373.3 103.3 426.7 100.7 480 102.3C533.3 104 586.7 110 640 107.5C693.3 105 746.7 94 800 96.2C853.3 98.3 906.7 113.7 933.3 121.3L960 129L960 0L933.3 0C906.7 0 853.3 0 800 0C746.7 0 693.3 0 640 0C586.7 0 533.3 0 480 0C426.7 0 373.3 0 320 0C266.7 0 213.3 0 160 0C106.7 0 53.3 0 26.7 0L0 0Z" fill="#e85041"></path><path d="M0 39L26.7 45C53.3 51 106.7 63 160 66.5C213.3 70 266.7 65 320 59C373.3 53 426.7 46 480 47.3C533.3 48.7 586.7 58.3 640 59.2C693.3 60 746.7 52 800 49.8C853.3 47.7 906.7 51.3 933.3 53.2L960 55L960 0L933.3 0C906.7 0 853.3 0 800 0C746.7 0 693.3 0 640 0C586.7 0 533.3 0 480 0C426.7 0 373.3 0 320 0C266.7 0 213.3 0 160 0C106.7 0 53.3 0 26.7 0L0 0Z" fill="#dd3f31"></path></svg>