<svg id="visual" viewBox="0 0 960 300" width="960" height="300" xmlns="http://www.w3.org/2000/svg" xmlns:xlink="http://www.w3.org/1999/xlink" version="1.1"><rect x="0" y="0" width="960" height="300" fill="#ff0066"></rect><path d="M0 166L26.7 158.2C53.3 150.3 106.7 134.7 160 129.3C213.3 124 266.7 129 320 132.7C373.3 136.3 426.7 138.7 480 135.5C533.3 132.3 586.7 123.7 640 118.2C693.3 112.7 746.7 110.3 800 112.7C853.3 115 906.7 122 933.3 125.5L960 129L960 301L933.3 301C906.7 301 853.3 301 800 301C746.7 301 693.3 301 640 301C586.7 301 533.3 301 480 301C426.7 301 373.3 301 320 301C266.7 301 213.3 301 160 301C106.7 301 53.3 301 26.7 301L0 301Z" fill="#ff6f61"></path><path d="M0 177L26.7 179.7C53.3 182.3 106.7 187.7 160 182.8C213.3 178 266.7 163 320 155.5C373.3 148 426.7 148 480 149C533.3 150 586.7 152 640 159.5C693.3 167 746.7 180 800 187.2C853.3 194.3 906.7 195.7 933.3 196.3L960 197L960 301L933.3 301C906.7 301 853.3 301 800 301C746.7 301 693.3 301 640 301C586.7 301 533.3 301 480 301C426.7 301 373.3 301 320 301C266.7 301 213.3 301 160 301C106.7 301 53.3 301 26.7 301L0 301Z" fill="#bb4b77"></path><path d="M0 196L26.7 197.7C53.3 199.3 106.7 202.7 160 205C213.3 207.3 266.7 208.7 320 206.8C373.3 205 426.7 200 480 199.3C533.3 198.7 586.7 202.3 640 203.8C693.3 205.3 746.7 204.7 800 204C853.3 203.3 906.7 202.7 933.3 202.3L960 202L960 301L933.3 301C906.7 301 853.3 301 800 301C746.7 301 693.3 301 640 301C586.7 301 533.3 301 480 301C426.7 301 373.3 301 320 301C266.7 301 213.3 301 160 301C106.7 301 53.3 301 26.7 301L0 301Z" fill="#663a6c"></path><path d="M0 241L26.7 240.3C53.3 239.7 106.7 238.3 160 240.8C213.3 243.3 266.7 249.7 320 250.8C373.3 252 426.7 248 480 246.3C533.3 244.7 586.7 245.3 640 245C693.3 244.7 746.7 243.3 800 243.3C853.3 243.3 906.7 244.7 933.3 245.3L960 246L960 301L933.3 301C906.7 301 853.3 301 800 301C746.7 301 693.3 301 640 301C586.7 301 533.3 301 480 301C426.7 301 373.3 301 320 301C266.7 301 213.3 301 160 301C106.7 301 53.3 301 26.7 301L0 301Z" fill="#1d2542"></path></svg>